<?xml version="1.0" encoding="UTF-8" standalone="no"?>
<!-- Created with Inkscape (http://www.inkscape.org/) -->

<svg
   version="1.1"
   id="svg1"
   width="679.81537"
   height="497.31168"
   viewBox="0 0 679.81536 497.31167"
   sodipodi:docname="WanderPall-logo_color_full.svg"
   inkscape:version="1.4.4 (dcaf3e7d9e, 2026-05-05)"
   xmlns:inkscape="http://www.inkscape.org/namespaces/inkscape"
   xmlns:sodipodi="http://sodipodi.sourceforge.net/DTD/sodipodi-0.dtd"
   xmlns="http://www.w3.org/2000/svg"
   xmlns:svg="http://www.w3.org/2000/svg">
  <defs
     id="defs1" />
  <sodipodi:namedview
     id="namedview1"
     pagecolor="#505050"
     bordercolor="#eeeeee"
     borderopacity="1"
     inkscape:showpageshadow="0"
     inkscape:pageopacity="0"
     inkscape:pagecheckerboard="0"
     inkscape:deskcolor="#505050"
     inkscape:zoom="0.34665699"
     inkscape:cx="1563.5052"
     inkscape:cy="812.0419"
     inkscape:window-width="1920"
     inkscape:window-height="1004"
     inkscape:window-x="0"
     inkscape:window-y="0"
     inkscape:window-maximized="1"
     inkscape:current-layer="g1">
    <inkscape:page
       x="0"
       y="0"
       width="679.81537"
       height="497.31168"
       id="page2"
       margin="0"
       bleed="0" />
  </sodipodi:namedview>
  <g
     inkscape:groupmode="layer"
     inkscape:label="Image"
     id="g1"
     transform="translate(-53.733157,-32.18469)">
    <path
       id="path1"
       style="fill:#0d6b5c;fill-opacity:1"
       d="m 178.26283,284.99576 c -5.31127,0.40761 -4.99466,6.7153 -4.63672,81.53516 l 0.37305,78.13477 3.76172,7.14257 c 5.01584,9.52463 14.08784,18.1009 22.61523,21.37891 6.78984,2.61007 10.12089,2.67636 138.59375,2.74414 l 131.63477,0.0684 2.0664,-3.15234 c 2.39247,-3.65137 0.98465,-9.26063 -2.67773,-10.66602 -1.21616,-0.46668 -60.1738,-0.84766 -131.01563,-0.84766 -127.92299,0 -128.84202,-0.0198 -134.55859,-2.78711 -6.87952,-3.33032 -12.80852,-10.14037 -14.89648,-17.10937 -1.06022,-3.53869 -1.52344,-27.30419 -1.52344,-78.33789 0,-79.21999 0.10207,-78.09961 -7.09961,-78.09961 -1.00475,0 -1.87797,-0.0621 -2.63672,-0.004 z m 227.75195,1.11914 c -0.84567,0.007 -1.73255,0.191 -2.68164,0.53711 -5.18423,1.89057 -5.53018,7.08294 -1.03906,15.59961 2.24706,4.2612 4.5178,9.8474 5.04492,12.41407 0.52712,2.56666 1.88359,5.71666 3.01563,7 2.72818,3.09277 7.33276,2.95921 10.28125,-0.29883 3.24783,-3.58881 1.93051,-11.18692 -4.12305,-23.77539 -3.93252,-8.17774 -6.83347,-11.50577 -10.49805,-11.47657 z m 6.26953,53.90235 c -1.33055,-0.0491 -2.65793,0.27061 -3.77148,1.0039 -0.81816,0.53878 -2.84893,3.67852 -4.51172,6.97852 -1.66279,3.3 -5.34201,8.92868 -8.17773,12.50781 -5.88322,7.42556 -6.21035,9.10606 -2.49024,12.82617 1.46667,1.46667 3.7964,2.66602 5.17774,2.66602 4.44346,0 16.52868,-15.28354 19.9414,-25.2207 1.28605,-3.74473 1.20138,-5.11008 -0.47461,-7.66797 -1.25046,-1.90845 -3.47577,-3.01186 -5.69336,-3.09375 z m -37.76171,40.18554 c -2.89211,-0.14824 -7.15661,1.30461 -14.33985,4.4629 -5.83765,2.56667 -11.07016,4.66796 -11.62695,4.66796 -4.55066,0 -7.71515,9.64032 -4.28906,13.06641 2.65442,2.65441 7.79943,1.76907 20.29492,-3.49414 7.39935,-3.11667 12.89415,-6.34826 14.53711,-8.54883 2.50055,-3.34921 2.52131,-3.71927 0.40625,-6.94726 -1.31534,-2.00746 -2.73301,-3.09173 -4.98242,-3.20704 z m -54.41797,17.75977 c -3.22325,-0.13613 -7.95201,0.35271 -14.83203,1.30469 -16.37322,2.26553 -19.07258,3.74111 -18.33008,10.0332 0.22664,1.92062 1.75308,3.97991 3.64453,4.91797 1.78939,0.88745 4.78874,1.36115 6.66601,1.05273 1.87727,-0.30842 8.21341,-1.23189 14.08008,-2.05273 13.74256,-1.92281 15.33399,-2.81792 15.33399,-8.62695 0,-4.44047 -1.19043,-6.40202 -6.5625,-6.62891 z m -69.74219,4.70313 c -13.1592,0 -16.60341,0.40934 -18.58984,2.20703 -3.03231,2.74421 -3.12736,6.82262 -0.23243,10.02148 1.89664,2.09577 4.38353,2.43945 17.70313,2.43945 20.12577,0 25.33702,-3.1521 19.34765,-11.70312 -1.95064,-2.78493 -3.04822,-2.96484 -18.22851,-2.96484 z" />
    <path
       id="path4"
       style="fill:#8b6342;fill-opacity:1"
       d="m 480.84095,269.77506 c -8.66762,0.23027 -18.75015,6.31666 -22.9082,14.35742 -1.06254,2.05473 -1.93359,7.34799 -1.93359,11.76367 0,7.67543 0.36715,8.55829 8.33398,20.06641 8.87063,12.81366 37.30837,52.29451 57.88086,80.35938 6.84935,9.34383 12.45313,17.22748 12.45313,17.51953 0,0.29205 -4.95,-1.6295 -11,-4.27149 -14.41722,-6.2959 -27.18349,-7.33333 -36.25196,-2.94336 -15.07065,7.29558 -19.72802,24.69776 -9.3789,35.04688 1.85501,1.85501 8.90556,6.55193 15.66797,10.4375 6.7624,3.88557 23.87343,13.8928 38.02343,22.23828 32.47054,19.15068 41.58963,23.44515 58.76563,27.68164 20.15928,4.97233 24.78426,7.89356 35.32031,22.30273 4.49875,6.15251 10.21881,6.89178 13.58399,1.75586 2.47613,-3.77905 1.90213,-5.26534 -6.35743,-16.4707 -6.9185,-9.386 -14.24885,-14.46155 -25.62695,-17.74609 -26.40817,-7.62331 -32.72605,-9.79435 -40.08008,-13.77344 -18.87873,-10.21483 -77.47616,-45.17687 -79,-47.13477 -2.39961,-3.08315 -2.13425,-4.03567 2.38281,-8.55273 3.81604,-3.81604 4.52804,-4.01594 12.33399,-3.46484 6.68662,0.47207 12.36155,2.42959 29.43555,10.15234 11.63369,5.26204 22.54102,9.56641 24.23828,9.56641 5.74696,0 8.79738,-5.33103 6.01953,-10.52149 -0.69117,-1.29146 -21.69052,-30.71776 -46.66602,-65.39062 -45.7072,-63.45417 -47.19614,-65.8811 -44.58203,-72.69336 1.21886,-3.1763 7.97658,-6.24293 11.69922,-5.3086 4.72332,1.18547 6.38158,3.24285 42.12109,52.29297 35.02221,48.06568 37.21592,50.35049 42.88868,44.67774 4.0132,-4.0132 2.86917,-6.83417 -9.6211,-23.72266 -5.96589,-8.06667 -11.68452,-16.58729 -12.70703,-18.93555 -2.4944,-5.72853 -0.5993,-10.44498 5.33203,-13.27343 6.78077,-3.23353 11.36202,-0.81774 19.04102,10.0371 15.36186,21.71512 21.884,29.50586 24.70508,29.50586 3.75054,0 7.71289,-3.71371 7.71289,-7.23046 0,-1.54975 -4.5,-9.09635 -10,-16.76954 -6.25481,-8.72625 -10,-15.2392 -10,-17.39062 0,-4.13168 4.15516,-8.93029 8.72851,-10.07813 6.22857,-1.56327 10.39527,1.71807 20.47656,16.13086 14.8438,21.22158 18.11624,23.82517 23.36524,18.57618 3.59041,-3.59041 2.39839,-8.45014 -4.35156,-17.73047 -8.65098,-11.89403 -9.76372,-14.20105 -8.76563,-18.17774 1.12477,-4.48147 5.41103,-7.33008 11.03125,-7.33008 3.45761,0 5.4969,1.04513 8.44141,4.33204 9.11278,10.17239 51.42396,70.44133 54.91601,78.22265 3.54987,7.91016 6.27695,20.88641 8.18164,38.9336 0.85028,8.05642 6.83402,19.69417 15.08008,29.32812 4.68618,5.47491 7.50755,6.3129 11.47461,3.41211 3.8389,-2.80707 2.88109,-8.3105 -2.88867,-16.59961 -7.95586,-11.42977 -8.34057,-12.49606 -10.35547,-28.66797 -2.1817,-17.51069 -5.62637,-29.31471 -11.6582,-39.95898 -4.3994,-7.76354 -46.42491,-65.87539 -53.55078,-74.04883 -10.94065,-12.54904 -29.26669,-12.89786 -39.28321,-0.74609 l -3.73047,4.52734 -5.88867,-2.67188 c -10.55633,-4.78922 -20.35262,-2.7628 -28.73633,5.94141 l -5.51562,5.72461 -7.17773,-1.99805 c -9.70651,-2.70167 -17.10693,-0.73096 -24.31446,6.47657 -3.90681,3.90681 -5.55778,4.82978 -6.33398,3.53906 -0.57745,-0.9602 -8.16016,-11.34675 -16.84961,-23.08008 -16.23784,-21.92588 -20.83537,-26.1371 -30.51563,-27.95313 -1.15906,-0.21744 -2.36723,-0.30438 -3.60547,-0.27148 z" />
    <path
       id="path3"
       style="fill:#0d6b5c;fill-opacity:1"
       d="m 372.24916,242.66569 c -4.74747,0 -6.91602,2.20449 -6.91602,7.02734 0,5.34915 11.77223,22.46429 17.83203,25.92578 3.65645,2.08864 3.71061,2.08629 7.20508,-0.36133 4.42124,-3.09676 3.71588,-7.98104 -2.17578,-15.07226 -2.82632,-3.40177 -6.73405,-8.7349 -8.68359,-11.85157 -2.7921,-4.46363 -4.33415,-5.66796 -7.26172,-5.66796 z" />
    <path
       id="path10"
       style="fill:#0d6b5c;fill-opacity:1"
       d="m 368.37025,188.18912 c -0.97531,-0.007 -1.86603,0.0998 -2.43555,0.31836 -3.02948,1.16252 -6.92567,10.90949 -8.73046,21.83789 -1.38564,8.3904 -1.30916,9.96473 0.63867,12.9375 2.4257,3.70209 8.80379,4.68391 11.14648,1.7168 0.72376,-0.91666 1.65638,-5.13863 2.07227,-9.38281 0.41589,-4.24418 1.76824,-10.36869 3.00586,-13.60938 2.79603,-7.32129 1.77246,-12.32928 -2.75196,-13.46484 -0.91026,-0.22848 -1.97,-0.34698 -2.94531,-0.35352 z" />
    <path
       id="path9"
       style="fill:#0d6b5c;fill-opacity:1"
       d="m 411.44252,151.1149 c -2.02877,-0.0321 -4.64108,1.06821 -10.43164,3.94727 -17.47587,8.68918 -22.85952,15.21145 -17.47071,21.16602 2.91703,3.22328 7.27739,3.08602 11.66993,-0.36915 1.96378,-1.54471 7.59523,-5.00593 12.51367,-7.68945 8.326,-4.5427 8.97062,-5.22129 9.35547,-9.84961 0.35205,-4.2339 -0.0912,-5.20149 -2.98829,-6.52148 -0.92504,-0.42148 -1.72627,-0.66902 -2.64843,-0.6836 z" />
    <path
       id="path8"
       style="fill:#0d6b5c;fill-opacity:1"
       d="m 466.10072,137.81803 c -6.48067,-0.15973 -23.522,2.23805 -28.30469,4.20703 -5.30011,2.18199 -6.74877,6.32471 -3.78906,10.8418 1.84154,2.81054 2.96324,3.27321 6.44531,2.66797 2.31816,-0.40293 9.83614,-1.49366 16.70703,-2.42383 10.21066,-1.3823 12.83563,-2.21425 14.36914,-4.55469 2.34218,-3.57462 0.51738,-9.27224 -3.36328,-10.50391 -0.42816,-0.13589 -1.13864,-0.21155 -2.06445,-0.23437 z" />
    <path
       id="path7"
       style="fill:#0d6b5c;fill-opacity:1"
       d="m 493.73744,106.66569 c -4.67827,0 -9.73828,5.03701 -9.73828,9.69335 0,1.56602 5.04347,7.81017 12.2207,15.12891 l 12.2207,12.46094 -12.2207,12.63281 c -13.44575,13.89872 -14.68925,17.07052 -8.94726,22.8125 5.84026,5.84027 9.11017,4.55607 22.9375,-9.00391 l 12.51953,-12.27539 12.32617,12.27539 c 13.67523,13.61837 17.06283,14.94498 23.0039,9.00391 5.90557,-5.90557 4.72528,-8.49767 -10.6621,-23.41797 -5.53584,-5.36781 -10.06446,-10.37199 -10.06446,-11.11914 0,-0.74716 5.4,-6.86362 12,-13.59375 7.03161,-7.17025 12,-13.34184 12,-14.9043 0,-4.80116 -5.05398,-9.69335 -10.01562,-9.69335 -3.84215,0 -6.28171,1.72733 -16.9043,11.96875 l -12.41406,11.96875 -12.02344,-11.96875 c -10.0521,-10.00434 -12.71776,-11.96875 -16.23828,-11.96875 z" />
    <path
       id="path6"
       style="fill:#0d6b5c;fill-opacity:1"
       d="M 423.47963,53.636388 C 279.89488,53.311711 261.95079,53.496931 259.1476,55.333654 c -3.56363,2.334976 -4.31432,8.70498 -1.31836,11.191406 1.34538,1.116567 43.27679,1.509768 158.55273,1.486328 109.71175,-0.02231 158.78889,0.411504 163.60938,1.445313 8.21379,1.761543 15.37239,7.532179 18.85546,15.199219 2.271,4.999008 2.42964,11.181071 2.45704,95.58008 l 0.0293,90.23633 3.51367,2.76367 c 4.20941,3.31112 4.41899,3.32845 8.18946,0.6875 l 2.96289,-2.07422 v -91.875 c 0,-90.54631 -0.0402,-91.983975 -2.84571,-99.482423 C 609.5388,70.830818 601.7977,62.41192 592.18862,57.693029 l -7.52148,-3.693359 z" />
    <path
       id="path5"
       style="fill:#8b6342;fill-opacity:1"
       d="m 152.79408,32.185216 c -0.37608,0.0039 -0.77943,0.02971 -1.21484,0.07227 -4.4769,0.437527 -7.75631,4.779429 -6.68946,8.855469 1.12734,4.307154 14.58434,19.526451 20.47657,23.158203 3.51595,2.167094 12.57973,5.310775 22.06835,7.652344 20.40618,5.035762 22.86243,6.117938 54.07032,23.857422 14.20562,8.074886 32.12812,17.877226 39.82812,21.783196 13.63051,6.91433 14,7.2216 14,11.625 0,6.26758 -5.12927,10.00317 -13.66211,9.95117 -4.78264,-0.0291 -11.96416,-2.38325 -29.25586,-9.58984 -12.60451,-5.25313 -24.33424,-9.55078 -26.0664,-9.55078 -6.79165,0 -8.57275,7.72711 -3.28125,14.23047 1.68665,2.07293 8.80396,11.57017 15.8164,21.10351 7.01244,9.53333 26.63204,36.13456 43.59961,59.11329 22.48768,30.45446 30.84961,42.76384 30.84961,45.41406 0,4.04847 -3.76255,8.7946 -8.05273,10.15625 -5.95706,1.8907 -10.30583,-1.94029 -25.54492,-22.50781 -53.79697,-72.60736 -53.05387,-71.68691 -57.53321,-71.24805 -2.81747,0.27603 -4.65629,1.44437 -5.75195,3.6543 -2.00439,4.0428 -1.52152,5.01817 10.47266,21.125 12.61211,16.93663 14.81614,20.89158 13.6914,24.58007 -2.18385,7.16173 -9.66175,10.71742 -15.70312,7.4668 -1.79281,-0.96464 -8.82529,-9.2552 -15.62696,-18.42187 -6.80168,-9.16667 -13.0238,-17.10577 -13.82617,-17.64454 -4.87196,-3.27139 -12.39726,1.72002 -10.99804,7.29493 0.42661,1.69978 4.99791,8.72893 10.1582,15.61914 7.23017,9.65396 9.38086,13.54478 9.38086,16.96289 0,6.0623 -3.9514,9.76758 -10.41602,9.76758 -6.07117,0 -7.7176,-1.56236 -22.11523,-21 -10.37336,-14.00465 -12.42586,-15.38751 -18.22266,-12.28516 -4.76813,2.55183 -3.20611,8.2059 5.42188,19.63281 8.83661,11.7032 9.89798,16.12675 5.09961,21.23438 -3.23527,3.44378 -10.90512,4.16554 -14.57422,1.37109 -3.90974,-2.97773 -49.11543,-65.47009 -53.736331,-74.28516 C 89.82756,170.59617 88.389361,165.27967 86.698377,148.97233 85.010646,132.69638 82.049514,124.9601 72.807752,112.68131 65.067056,102.39686 61.823918,100.26334 57.473767,102.59147 c -5.862263,3.13739 -5.025356,7.33664 3.869141,19.4082 7.904434,10.72784 9.442787,14.78335 10.785156,28.45703 2.510897,25.57658 7.664038,37.1399 30.191406,67.73828 30.12744,40.92137 35.60081,47.69433 41.01367,50.75 10.86274,6.13225 26.70052,2.78297 33.32617,-7.04883 2.6827,-3.98087 2.83364,-4.02682 7.36524,-2.17773 6.35861,2.59458 18.92471,1.57736 23.66015,-1.91602 2.00681,-1.48045 4.8478,-4.58943 6.31446,-6.9082 2.48109,-3.92253 3.03783,-4.15127 8,-3.29883 6.90552,1.18628 14.9334,0.69561 18.50586,-1.13086 1.55573,-0.79538 4.9971,-3.51834 7.64843,-6.05078 l 4.82032,-4.60547 14.67187,19.76368 c 16.54311,22.28491 19.3223,25.2041 26.56055,27.89257 6.42603,2.38679 17.25313,1.45865 21.69726,-1.85937 1.80128,-1.34486 5.11107,-4.7118 7.35352,-7.48242 3.64632,-4.50515 4.07617,-5.98767 4.07617,-14.0293 0,-10.87208 2.88232,-6.31515 -43.90625,-69.38477 -18.75194,-25.27706 -34.09375,-46.11887 -34.09375,-46.31445 0,-0.19557 3.15,0.9019 7,2.4375 15.35135,6.12298 17.96543,6.82531 25.72852,6.91211 10.37363,0.116 19.35867,-4.04762 24.72461,-11.45508 3.22578,-4.45306 3.88086,-6.66348 3.88086,-13.10937 0,-6.73666 -0.53252,-8.35958 -4.05469,-12.3711 -2.35554,-2.68282 -9.75609,-7.53849 -17.66602,-11.59179 -7.48706,-3.8366 -24.71262,-13.276039 -38.27929,-20.976566 -32.17845,-18.264694 -37.73239,-20.780022 -56.47657,-25.580078 -21.77579,-5.5764 -22.38311,-5.960402 -34.64062,-21.892578 -2.75535,-3.58138 -4.1233,-4.609298 -6.75586,-4.582032 z" />
  </g>
</svg>
